<svg width="1024" height="1024" xmlns="http://www.w3.org/2000/svg" style="vector-effect: non-scaling-stroke;">
 <!-- Created with Method Draw - http://github.com/duopixel/Method-Draw/ -->
 <defs>
  <linearGradient spreadMethod="pad" y2="0" x2="0.503906" y1="1" x1="0.472656" id="svg_11">
   <stop offset="0.136719" stop-opacity="0.996094" stop-color="#383838"/>
   <stop offset="1" stop-opacity="0.996094" stop-color="#cccccc"/>
  </linearGradient>
  <linearGradient y2="0" x2="0.507813" y1="1" x1="0.476563" id="svg_12">
   <stop offset="0" stop-color="#000000"/>
   <stop offset="1" stop-opacity="0.996094" stop-color="#383838"/>
  </linearGradient>
  <linearGradient spreadMethod="pad" y2="0" x2="0.5" y1="1" x1="0.5" id="svg_13">
   <stop offset="0.34375" stop-opacity="0.996094" stop-color="#383838"/>
   <stop offset="1" stop-opacity="0.996094" stop-color="#cccccc"/>
  </linearGradient>
 </defs>
 <g>
  <title>background</title>
  <rect fill="none" id="canvas_background" height="1026" width="1026" y="-1" x="-1"/>
  <g style="vector-effect: non-scaling-stroke;" display="none" overflow="visible" y="0" x="0" height="100%" width="100%" id="canvasGrid">
   <rect fill="url(#gridpattern)" stroke-width="0" y="0" x="0" height="100%" width="100%"/>
  </g>
 </g>
 <g>
  <title>Layer 1</title>
  <text xml:space="preserve" text-anchor="start" font-family="'Trebuchet MS', Gadget, sans-serif" font-size="250" id="svg_14" y="669.886439" x="601.01114" stroke-opacity="null" stroke-width="0" stroke="#000" fill="url(#svg_11)"/>
  <text transform="matrix(1.30527, 0, 0, 1, -137.15, 0)" xml:space="preserve" text-anchor="start" font-family="'Trebuchet MS', Gadget, sans-serif" font-size="250" id="svg_19" y="653.884436" x="374.37042" fill-opacity="null" stroke-opacity="null" stroke-width="0" stroke="#000" fill="url(#svg_11)"/>
  <path d="m573.142395,557.56427l349.20929,-8.001038"/>
  <path d="m633.151184,555.611023l347.412598,-8.001038"/>
  <path d="m633.151184,555.611023l347.412598,-8.001038"/>
  <path d="m589.144409,729.585754l349.20929,-8.000977"/>
  <path d="m639.150696,719.584473l349.209229,-8.000977"/>
  <path d="m639.150696,719.584473l349.209229,-8.000977"/>
  <g id="svg_35">
   <g id="svg_20">
    <text transform="matrix(3.30322, 0, 0, 1.88595, -1177.98, -257.694)" xml:space="preserve" text-anchor="start" font-family="'Trebuchet MS', Gadget, sans-serif" font-size="250" id="svg_3" y="342.383346" x="434.885544" stroke-width="0" stroke="#000" fill="url(#svg_13)">M</text>
    <text transform="matrix(6.26996, 0, 0, 3.32939, -3135.06, -798.465)" xml:space="preserve" text-anchor="start" font-family="'Trebuchet MS', Gadget, sans-serif" font-size="250" id="svg_2" y="518.373411" x="505.300551" stroke-width="0" stroke="#000" fill="url(#svg_12)">C</text>
   </g>
   <g id="svg_34">
    <line stroke-width="28" stroke-linecap="null" stroke-linejoin="null" id="svg_30" y2="619.571991" x2="966.357207" y1="627.572991" x1="527.136654" fill-opacity="null" stroke-opacity="null" stroke="#000" fill="none"/>
    <line stroke-width="28" stroke-linecap="null" stroke-linejoin="null" id="svg_32" y2="539.561987" x2="966.357207" y1="547.562987" x1="527.136654" fill-opacity="null" stroke-opacity="null" stroke="#000" fill="none"/>
    <line stroke-width="28" stroke-linecap="null" stroke-linejoin="null" id="svg_33" y2="699.581995" x2="966.357207" y1="707.582995" x1="527.136654" fill-opacity="null" stroke-opacity="null" stroke="#000" fill="none"/>
   </g>
  </g>
 </g>
</svg>